<svg id="Livello_1" data-name="Livello 1" xmlns="http://www.w3.org/2000/svg" xmlns:xlink="http://www.w3.org/1999/xlink" viewBox="0 0 231.62 72">
  <defs>
    <style>
      .cls-1 {
        fill: #1c3988;
      }

      .cls-2 {
        fill: #fff;
      }

      .cls-3 {
        fill: url(#Sfumatura_senza_nome_5);
      }

      .cls-4 {
        fill: url(#Sfumatura_senza_nome_3);
      }

      .cls-5 {
        fill: url(#Sfumatura_senza_nome_3-2);
      }

      .cls-6 {
        fill: url(#Sfumatura_senza_nome_3-3);
      }

      .cls-7 {
        fill: url(#Sfumatura_senza_nome_3-4);
      }

      .cls-8 {
        fill: url(#Sfumatura_senza_nome_3-5);
      }

      .cls-9 {
        fill: url(#Sfumatura_senza_nome_3-6);
      }

      .cls-10 {
        fill: url(#Sfumatura_senza_nome_3-7);
      }

      .cls-11 {
        fill: url(#Sfumatura_senza_nome_6);
      }
    </style>
    <linearGradient id="Sfumatura_senza_nome_5" data-name="Sfumatura senza nome 5" x1="217.75" y1="44.34" x2="146.23" y2="44.34" gradientUnits="userSpaceOnUse">
      <stop offset="0.08" stop-color="#0aa9e8"/>
      <stop offset="0.2" stop-color="#119bda"/>
      <stop offset="0.43" stop-color="#2376b6"/>
      <stop offset="0.47" stop-color="#276eaf"/>
      <stop offset="0.8" stop-color="#1c3988"/>
    </linearGradient>
    <linearGradient id="Sfumatura_senza_nome_3" data-name="Sfumatura senza nome 3" x1="167.18" y1="44.38" x2="43.03" y2="44.38" gradientUnits="userSpaceOnUse">
      <stop offset="0.08" stop-color="#0aa9e8"/>
      <stop offset="0.22" stop-color="#0ca6e5"/>
      <stop offset="0.32" stop-color="#109cdc"/>
      <stop offset="0.42" stop-color="#188ccc"/>
      <stop offset="0.51" stop-color="#2474b5"/>
      <stop offset="0.53" stop-color="#276eaf"/>
      <stop offset="0.92" stop-color="#1c3988"/>
    </linearGradient>
    <linearGradient id="Sfumatura_senza_nome_3-2" x1="167.18" y1="44.39" x2="43.03" y2="44.39" xlink:href="#Sfumatura_senza_nome_3"/>
    <linearGradient id="Sfumatura_senza_nome_3-3" x1="167.18" y1="44.38" x2="43.03" y2="44.38" xlink:href="#Sfumatura_senza_nome_3"/>
    <linearGradient id="Sfumatura_senza_nome_3-4" x1="167.18" y1="45.22" x2="43.03" y2="45.22" xlink:href="#Sfumatura_senza_nome_3"/>
    <linearGradient id="Sfumatura_senza_nome_3-5" x1="167.18" y1="45.2" x2="43.03" y2="45.2" xlink:href="#Sfumatura_senza_nome_3"/>
    <linearGradient id="Sfumatura_senza_nome_3-6" x1="167.18" y1="45.21" x2="43.03" y2="45.21" xlink:href="#Sfumatura_senza_nome_3"/>
    <linearGradient id="Sfumatura_senza_nome_3-7" x1="167.18" y1="37.46" x2="43.03" y2="37.46" xlink:href="#Sfumatura_senza_nome_3"/>
    <linearGradient id="Sfumatura_senza_nome_6" data-name="Sfumatura senza nome 6" x1="220.7" y1="44.42" x2="142.96" y2="44.42" xlink:href="#Sfumatura_senza_nome_5"/>
  </defs>
  <path class="cls-1" d="M51.18,23.78A.19.19,0,0,1,51,24c-3.36.11-53.58,1.84-4.31,15.23,29.64,8.06,7.8,17,4.79,18a2.17,2.17,0,0,1-.62.1l-40.74,0a.17.17,0,0,1,0-.34c6.73-1.41,29.35-6.14,17-14.63C23.63,40-18.95,21.79,50,22a.56.56,0,0,1,.48.26A9.87,9.87,0,0,1,51.18,23.78Z"/>
  <path class="cls-1" d="M54.49,14.68a4.34,4.34,0,0,0-4,4,1.09,1.09,0,0,0,0,.18,4.15,4.15,0,0,0,.37,1.8l.18.41,3.45,8a.34.34,0,0,0,.63,0l3.45-8,.22-.51A4,4,0,0,0,59.14,19h0A4.33,4.33,0,0,0,54.49,14.68Zm.63,7.19a2.9,2.9,0,1,1,2.58-2.59A2.9,2.9,0,0,1,55.12,21.87Z"/>
  <circle class="cls-1" cx="54.82" cy="18.99" r="2.32"/>
  <path class="cls-2" d="M38,56.41a24.46,24.46,0,0,0,4.05-2.75A9.87,9.87,0,0,0,45,50a4.4,4.4,0,0,0,.31-2.23,5.27,5.27,0,0,0-.83-2.13,12.39,12.39,0,0,0-3.58-3.2,44.41,44.41,0,0,0-9-4,55.56,55.56,0,0,1-9.18-4A9.62,9.62,0,0,1,19,31a2,2,0,0,1-.24-.63c0-.11-.06-.22-.08-.33v-.34c0-.12,0-.24,0-.35l.11-.32a3,3,0,0,1,.12-.32l.19-.27a5.19,5.19,0,0,1,2-1.63,20.57,20.57,0,0,1,4.73-1.7,48.37,48.37,0,0,1,4.91-1,135.85,135.85,0,0,1,19.95-1.17,133.81,133.81,0,0,0-19.91,1.42c-1.64.27-3.27.58-4.88,1a20.68,20.68,0,0,0-4.62,1.72,5,5,0,0,0-1.83,1.53,2,2,0,0,0-.08,2.14A9.19,9.19,0,0,0,23,33.89a56.17,56.17,0,0,0,9.13,3.89,44.52,44.52,0,0,1,9.23,4,13.06,13.06,0,0,1,3.85,3.38,6,6,0,0,1,1,2.47,5.4,5.4,0,0,1-.33,2.67,10.87,10.87,0,0,1-3.14,4.09,25.78,25.78,0,0,1-4.17,2.91.5.5,0,1,1-.5-.86Z"/>
  <g>
    <path class="cls-3" d="M153.68,51.55l-4.56-6.77v6.77h-2.88V37.23h4.68a4.75,4.75,0,0,1,4.86,4.64,4.19,4.19,0,0,1-2.64,4l4.06,5.7Zm-4.57-7.87H151a1.81,1.81,0,1,0,0-3.61h-1.85Z"/>
    <path class="cls-3" d="M162,40.06v2.8h4.94v2.87H162v3h5.76v2.86h-8.64V37.23h8.64v2.83Z"/>
    <path class="cls-3" d="M181.92,37.19V51.81h-.13l-8.5-8.27v8h-2.88V37h.15L179,45.21v-8Z"/>
    <path class="cls-3" d="M194,40.08h-3.51V51.55h-2.89V40.08H184.1V37.23H194Z"/>
    <path class="cls-3" d="M203.11,49.55h-5.73l-.91,2h-3.11l6.84-14.67h.09l6.84,14.67H204ZM202,47.1l-1.74-3.83L198.5,47.1Z"/>
    <path class="cls-3" d="M217.75,48.69v2.86h-8.63V37.23H212V48.69Z"/>
  </g>
  <g>
    <path class="cls-4" d="M74,40.66a.62.62,0,0,0-1.11-.38,1.09,1.09,0,0,0-.13.17L65.84,51.09a1.46,1.46,0,0,1-2.26.48,1.37,1.37,0,0,1-.25-1.92c.46-.76,1-1.5,1.43-2.25l5.63-8.74a3.54,3.54,0,0,1,4-1.67,3.43,3.43,0,0,1,2.48,3.49c0,2.49,0,5,0,7.47a3,3,0,0,0,0,.42.61.61,0,0,0,.64.57c.27,0,.38-.27.39-.74,0-2.58.07-5.16,0-7.73a3.54,3.54,0,0,1,3.45-3.62,3.45,3.45,0,0,1,3.44,3.62c0,3.42,0,6.84,0,10.27,0,.17,0,.34,0,.52,0,.37-.19.63-.59.63s-.63-.26-.64-.66c0-.95,0-1.91,0-2.86,0-2.64,0-5.28,0-7.93a2.19,2.19,0,0,0-2.21-2.36,2.22,2.22,0,0,0-2.2,2.38v7.8a1.77,1.77,0,1,1-3.51,0c0-2.58,0-5.15,0-7.73A2.19,2.19,0,0,0,74,38.16a2.3,2.3,0,0,0-2.6,1.14c-2.3,3.56-4.59,7.14-6.88,10.71a4,4,0,0,0-.27.59l.2.14a5.23,5.23,0,0,0,.48-.56q3.38-5.24,6.76-10.48a3,3,0,0,1,.78-.85A1.68,1.68,0,0,1,75.14,40a5.84,5.84,0,0,1,0,.84c0,2.47,0,4.94,0,7.41a2.19,2.19,0,0,0,2.19,2.44,2.23,2.23,0,0,0,2.23-2.48c0-2.47,0-4.94,0-7.41,0-.19,0-.05,0-.44a.58.58,0,0,1,.6-.5.61.61,0,0,1,.58.35,1.62,1.62,0,0,1,0,.45c0,2.59,0,5.19,0,7.78a3.49,3.49,0,0,1-2.75,3.43A3.44,3.44,0,0,1,74,48.54c0-2.62,0-5.24,0-7.87Z"/>
    <path class="cls-5" d="M90.48,50.69h0a4.71,4.71,0,0,0,.35-.62L95.06,40a1.85,1.85,0,0,1,1.82-1.39A1.93,1.93,0,0,1,98.66,40c.68,1.7,1.42,3.39,2.12,5.09.32.76.13,1.06-.69,1.07-1.45,0-2.9,0-4.35,0-.42,0-.83-.09-.85-.59s.42-.64.86-.64h3.46a.1.1,0,0,0,.09-.14l-1.91-4.55a.54.54,0,0,0-.48-.34h0a.56.56,0,0,0-.52.28c-.08.15-.16.29-.22.43Q94,45.73,91.86,50.85a1.5,1.5,0,0,1-2.51.61,1.57,1.57,0,0,1-.2-1.87q1.65-3.89,3.28-7.78c.37-.87.75-1.75,1.11-2.63a3.54,3.54,0,0,1,6.64,0l4.74,11.39a2,2,0,0,1,.2.54.79.79,0,0,1-.31.73.77.77,0,0,1-.78-.27,3.15,3.15,0,0,1-.22-.46c-1.59-3.79-3.19-7.58-4.76-11.38A2.27,2.27,0,0,0,97,38.11a2.37,2.37,0,0,0-2.28,1.47c-1.42,3.45-2.87,6.89-4.3,10.34a5.38,5.38,0,0,0-.18.69h0Z"/>
    <path class="cls-6" d="M117.75,45.87l3.17,3.21a3.73,3.73,0,0,1,.54.64,1.45,1.45,0,0,1-2.18,1.86c-.87-.81-1.7-1.67-2.53-2.52a.59.59,0,0,1,0-.92.62.62,0,0,1,.93.07c.72.71,1.43,1.44,2.16,2.15a1.94,1.94,0,0,0,.42.25.13.13,0,0,0,.16,0h0a.14.14,0,0,0,0-.17,6.08,6.08,0,0,0-.39-.47c-1.33-1.33-2.68-2.65-4-4-.21-.22-.47-.52-.35-.85s.58-.44.89-.44a3.63,3.63,0,0,0,3.37-1.55,3.22,3.22,0,0,0-2-4.89,8.17,8.17,0,0,0-1.49-.12H110.6c0,.81,0,1.57,0,2.34,0,.31,0,.61,0,.91a.59.59,0,0,1-.62.59.57.57,0,0,1-.59-.54c-.05-1.31-.05-2.64,0-4,0-.5.44-.58.86-.58h5.46c.6,0,1.21,0,1.81,0a4.5,4.5,0,0,1,4.16,3.9,4.56,4.56,0,0,1-3.31,4.94Z"/>
    <path class="cls-7" d="M110.59,49.1c0,.69,0,1.39,0,2.08,0,.43-.2.72-.66.71s-.6-.32-.6-.71c0-1.36-.07-2.73,0-4.09A4.47,4.47,0,0,1,114,42.88c1,0,2,0,3,0a1.53,1.53,0,1,0,.32-3c-.43-.1-.85-.23-.73-.78s.58-.52,1-.46A2.82,2.82,0,0,1,120,41.27a2.67,2.67,0,0,1-2.3,2.79c-1.29.13-2.59.07-3.89.1a3.17,3.17,0,0,0-3,2.11,3.13,3.13,0,0,0-.2,1c0,.61,0,1.22,0,1.82Z"/>
    <path class="cls-8" d="M135.36,39.79a1.07,1.07,0,0,0-1.05,1v9.88c0,.91-.18,1.13-.57,1.14a.57.57,0,0,1-.64-.48,1.6,1.6,0,0,1,0-.5V40.6a1.81,1.81,0,0,1,2-2c1.3,0,2.6,0,3.89,0,.45,0,.89.07.89.62s-.45.61-.89.61h-3.58Z"/>
    <path class="cls-9" d="M132.59,45.74c0,1.79,0,3.59,0,5.39a1,1,0,0,1-.36.68.63.63,0,0,1-.62-.08,1.29,1.29,0,0,1-.23-.77c0-1.93,0-3.85,0-5.78V40.89c0-1-.12-1.1-1.13-1.1h-3.31a2,2,0,0,1-.51,0,.68.68,0,0,1-.42-.58.64.64,0,0,1,.42-.58,5.88,5.88,0,0,1,1,0c1.06,0,2.13,0,3.19,0a1.78,1.78,0,0,1,2,2C132.6,42.27,132.59,44,132.59,45.74Z"/>
    <path class="cls-10" d="M132.82,38.08h-5.91a1.77,1.77,0,0,1-.63-.07.6.6,0,0,1-.29-.55.61.61,0,0,1,.31-.55,1.83,1.83,0,0,1,.63-.06H139c.43,0,.82.11.81.62s-.41.61-.83.61Z"/>
  </g>
  <path class="cls-11" d="M218.45,33.58a1.25,1.25,0,0,1,1.25,1.24V54a1.26,1.26,0,0,1-1.25,1.25H145.21A1.25,1.25,0,0,1,144,54V34.82a1.25,1.25,0,0,1,1.25-1.24h73.24m0-1H145.21A2.24,2.24,0,0,0,143,34.82V54a2.25,2.25,0,0,0,2.25,2.25h73.24A2.25,2.25,0,0,0,220.7,54V34.82a2.24,2.24,0,0,0-2.25-2.24Z"/>
</svg>
